<?xml version="1.0" encoding="UTF-8" standalone="no"?> <!-- Created with Vectornator for iOS (http://vectornator.io/) --><!DOCTYPE svg PUBLIC "-//W3C//DTD SVG 1.1//EN" "http://www.w3.org/Graphics/SVG/1.1/DTD/svg11.dtd">
<svg style="fill-rule:evenodd;clip-rule:evenodd;stroke-linecap:round;stroke-linejoin:round;" xmlns:vectornator="http://vectornator.io" xmlns:xlink="http://www.w3.org/1999/xlink" xmlns="http://www.w3.org/2000/svg" xml:space="preserve" version="1.1" viewBox="0 0 976.68 840.3">
<defs>
<linearGradient y1="706.75" id="LinearGradient" x1="582.97" y2="221.19" x2="582.97" gradientUnits="userSpaceOnUse" gradientTransform="matrix(1 0 0 1 -111.66 -29.85)">
<stop stop-color="#808080" offset="0"/>
<stop stop-color="#808080" offset="0.54"/>
<stop stop-color="#808080" offset="1"/>
</linearGradient>
</defs>
<path d="M890.34+455.97C852.39+520.68+857.56+607.69+872.34+676.06C877.28+698.95+883.03+723.06+877.91+748.94C871.65+780.54+850.61+805.69+829.52+820.25C791.08+846.8+747.78+846.99+716.78+820.75C689.99+798.07+672.85+757.91+645.46+736.48C599.63+700.63+535.38+724.3+479.25+759.89C439.54+785.07+395.77+816.84+359.87+800.14C334.61+788.39+319.39+754.05+312.71+716.47C309.48+698.33+307.71+678.47+299.76+664.76C295.03+656.61+288.42+651.23+281.55+646.85C218.78+606.85+132.09+643.24+71.7+597.77C30.91+567.06+8.63999+502.35+2.26999+432.77C-4.10001+363.19+3.71999+288.44+13.13+214.77C19.82+162.44+28.59+106.37+54.87+63.36C82.67+17.86+125.51-3.1+162.31+0.359999C199.11+3.82+230.65+28.36+257.66+58.54C291.41+96.28+321.57+144.74+365.98+156.21C396.23+164.02+429.64+153.54+462.06+147.32C516.25+136.92+569.45+138.46+622.26+140.82C672.82+143.08+723.67+146.16+770.46+164.37C803.57+177.26+828.63+205.01+859.46+222.75C879.53+234.31+902.41+235.35+921.01+250.94C943.93+270.15+963.38+306.09+953.15+352.24C943.42+396.15+910.52+421.62+890.34+455.97Z" opacity="0.1" fill="#6c63ff"/>
<path d="M178.77+422.99C167.4+432.99+116.22+441.59+116.22+441.59C116.22+441.59+131+391.86+142.37+381.81C153.768+372.015+170.921+373.193+180.872+384.455C190.824+395.716+189.883+412.884+178.76+422.99L178.77+422.99Z" opacity="1" fill="#6c63ff"/>
<path d="M181.16+534.39C171.65+546.22+122.66+563.29+122.66+563.29C122.66+563.29+128.82+511.77+138.33+499.95C147.866+488.214+165.093+486.388+176.877+495.864C188.662+505.34+190.576+522.557+181.16+534.39Z" opacity="1" fill="#6c63ff"/>
<path d="M178.77+422.99C167.4+432.99+116.22+441.59+116.22+441.59C116.22+441.59+131+391.86+142.37+381.81C153.768+372.015+170.921+373.193+180.872+384.455C190.824+395.716+189.883+412.884+178.76+422.99L178.77+422.99Z" opacity="1" fill="#fc6681"/>
<path d="M181.16+534.39C171.65+546.22+122.66+563.29+122.66+563.29C122.66+563.29+128.82+511.77+138.33+499.95C147.866+488.214+165.093+486.388+176.877+495.864C188.662+505.34+190.576+522.557+181.16+534.39Z" opacity="1" fill="#fc6681"/>
<path d="M15.68+672.58C15.68+654.355+230.807+639.58+496.18+639.58C761.553+639.58+976.68+654.355+976.68+672.58C976.68+690.805+761.553+705.58+496.18+705.58C230.807+705.58+15.68+690.805+15.68+672.58Z" opacity="0.1" fill="#6c63ff"/>
<path d="M841.4+536.07C841.4+536.07+831.71+345.86+791.93+278.54C791.93+278.54+762.76+225.26+738.38+209.72L738.38+203.58C698.6+176.04+649.65+203.58+649.65+203.58L649.65+206.3L639.45+214.8L593.52+214.64C589.312+209.567+583.061+206.635+576.47+206.64L366.89+206.64C360.697+206.633+354.784+209.223+350.59+213.78L302.89+213.78C302.89+213.78+300.08+210.51+292.69+207.22L292.69+203.58C252.91+176.04+203.96+203.58+203.96+203.58L203.96+210.97C202.797+211.738+201.764+212.687+200.9+213.78C200.9+213.78+160.61+240.78+151.43+274.46C151.43+274.46+101.96+422.86+100.94+539.13C99.92+655.4+144.8+671.72+168.25+674.78C191.7+677.84+233.52+673.78+274.32+570.78L291.66+510.61C291.66+510.61+294.72+474.91+331.44+497.35C368.16+519.79+400.79+485.11+400.79+485.11L538.49+485.11C538.49+485.11+584.34+513.63+626.2+491.15C626.2+491.15+642.52+469.73+657.82+542.15C657.82+542.15+704.74+691.06+777.15+675.76C849.56+660.46+841.4+536.07+841.4+536.07Z" opacity="1" fill="url(#LinearGradient)"/>
<path d="M209.18+219.08L209.18+208.08C209.18+208.08+257.18+181.08+296.18+208.08L296.18+218.08L209.18+219.08Z" opacity="1" fill="#535461"/>
<path d="M646.18+219.08L646.18+208.08C646.18+208.08+694.18+181.08+733.18+208.08L733.18+218.08L646.18+219.08Z" opacity="1" fill="#535461"/>
<path d="M209.18+219.08L209.18+208.08C209.18+208.08+257.18+181.08+296.18+208.08L296.18+218.08L209.18+219.08Z" opacity="0.1" fill="#000000"/>
<path d="M646.18+219.08L646.18+208.08C646.18+208.08+694.18+181.08+733.18+208.08L733.18+218.08L646.18+219.08Z" opacity="0.1" fill="#000000"/>
<path d="M353.18+218.08L306.18+218.08C306.18+218.08+294.18+204.08+254.18+205.08C214.18+206.08+206.18+218.08+206.18+218.08C206.18+218.08+166.68+244.58+157.68+277.58C157.68+277.58+109.18+423.08+108.18+537.08C107.18+651.08+151.18+667.08+174.18+670.08C197.18+673.08+238.18+669.08+278.18+568.08L295.18+509.08C295.18+509.08+298.18+474.08+334.18+496.08C370.18+518.08+402.18+484.08+402.18+484.08L537.18+484.08C537.18+484.08+582.18+512.08+623.18+490.08C623.18+490.08+639.18+469.08+654.18+540.08C654.18+540.08+700.18+686.08+771.18+671.08C842.18+656.08+834.18+534.08+834.18+534.08C834.18+534.08+824.68+347.58+785.68+281.58C785.68+281.58+748.18+213.08+723.18+210.08C723.18+210.08+669.18+200.08+648.18+209.08L636.18+219.08L353.18+218.08Z" opacity="1" fill="#535461"/>
<path d="M157.18+316.08C157.18+268.031+196.131+229.08+244.18+229.08C292.229+229.08+331.18+268.031+331.18+316.08C331.18+364.129+292.229+403.08+244.18+403.08C196.131+403.08+157.18+364.129+157.18+316.08Z" opacity="1" fill="#e2e2ec"/>
<path d="M611.18+316.08C611.18+268.031+650.131+229.08+698.18+229.08C746.229+229.08+785.18+268.031+785.18+316.08C785.18+364.129+746.229+403.08+698.18+403.08C650.131+403.08+611.18+364.129+611.18+316.08Z" opacity="1" fill="#e2e2ec"/>
<path d="M259.34+296.68L247.74+306.94C245.708+308.729+242.662+308.729+240.63+306.94L229.01+296.68C227.861+295.667+227.198+294.212+227.19+292.68L227.19+264.45C227.196+261.483+229.603+259.08+232.57+259.08L255.82+259.08C257.248+259.077+258.618+259.643+259.627+260.653C260.637+261.662+261.203+263.032+261.2+264.46L261.2+292.66C261.187+294.205+260.51+295.67+259.34+296.68Z" opacity="1" fill="#535461"/>
<path d="M259.34+335.47L247.74+325.22C245.708+323.431+242.662+323.431+240.63+325.22L229.01+335.48C227.861+336.493+227.198+337.948+227.19+339.48L227.19+367.68C227.187+369.108+227.753+370.478+228.763+371.487C229.772+372.497+231.142+373.063+232.57+373.06L255.82+373.06C257.246+373.063+258.614+372.498+259.624+371.491C260.633+370.483+261.2+369.116+261.2+367.69L261.2+339.49C261.187+337.945+260.51+336.48+259.34+335.47Z" opacity="1" fill="#535461"/>
<path d="M224.79+331.26L235.05+319.64C236.839+317.608+236.839+314.562+235.05+312.53L224.79+300.91C223.777+299.762+222.322+299.1+220.79+299.09L192.59+299.09C189.623+299.096+187.22+301.503+187.22+304.47L187.22+327.72C187.217+329.148+187.783+330.518+188.793+331.527C189.802+332.537+191.172+333.103+192.6+333.1L220.8+333.1C222.332+333.084+223.783+332.414+224.79+331.26Z" opacity="1" fill="#535461"/>
<path d="M263.58+331.26L253.34+319.63C251.546+317.599+251.546+314.551+253.34+312.52L263.6+300.9C264.613+299.751+266.068+299.088+267.6+299.08L295.8+299.08C297.228+299.077+298.598+299.643+299.607+300.653C300.617+301.662+301.183+303.032+301.18+304.46L301.18+327.71C301.183+329.136+300.618+330.504+299.611+331.514C298.603+332.523+297.236+333.09+295.81+333.09L267.61+333.09C266.066+333.088+264.598+332.421+263.58+331.26Z" opacity="1" fill="#535461"/>
<path stroke="#535461" stroke-width="2" d="M229.18+252.08L259.18+252.08L244.18+239.08L229.18+252.08Z" fill="none" stroke-linecap="butt" opacity="1" stroke-linejoin="miter"/>
<path stroke="#535461" stroke-width="2" d="M229.18+380.08L259.18+380.08L244.18+393.08L229.18+380.08Z" fill="none" stroke-linecap="butt" opacity="1" stroke-linejoin="miter"/>
<path stroke="#535461" stroke-width="2" d="M180.18+301.08L180.18+331.08L167.18+316.08L180.18+301.08Z" fill="none" stroke-linecap="butt" opacity="1" stroke-linejoin="miter"/>
<path stroke="#535461" stroke-width="2" d="M308.18+301.08L308.18+331.08L321.18+316.08L308.18+301.08Z" fill="none" stroke-linecap="butt" opacity="1" stroke-linejoin="miter"/>
<path d="M299.18+411.08C299.18+376.286+327.386+348.08+362.18+348.08C396.974+348.08+425.18+376.286+425.18+411.08C425.18+445.874+396.974+474.08+362.18+474.08C327.386+474.08+299.18+445.874+299.18+411.08Z" opacity="1" fill="#e2e2ec"/>
<path d="M318.18+401.08C318.18+377.884+336.984+359.08+360.18+359.08C383.376+359.08+402.18+377.884+402.18+401.08C402.18+424.276+383.376+443.08+360.18+443.08C336.984+443.08+318.18+424.276+318.18+401.08Z" opacity="1" fill="#535461"/>
<path d="M517.18+411.08C517.18+376.286+545.386+348.08+580.18+348.08C614.974+348.08+643.18+376.286+643.18+411.08C643.18+445.874+614.974+474.08+580.18+474.08C545.386+474.08+517.18+445.874+517.18+411.08Z" opacity="1" fill="#e2e2ec"/>
<path d="M536.18+401.08C536.18+377.884+554.984+359.08+578.18+359.08C601.376+359.08+620.18+377.884+620.18+401.08C620.18+424.276+601.376+443.08+578.18+443.08C554.984+443.08+536.18+424.276+536.18+401.08Z" opacity="1" fill="#535461"/>
<path stroke="#000000" stroke-width="2" d="M332.18+401.08C332.18+385.616+344.716+373.08+360.18+373.08C375.644+373.08+388.18+385.616+388.18+401.08C388.18+416.544+375.644+429.08+360.18+429.08C344.716+429.08+332.18+416.544+332.18+401.08Z" fill="none" stroke-linecap="butt" opacity="0.1" stroke-linejoin="miter"/>
<path stroke="#000000" stroke-width="2" d="M550.18+401.08C550.18+385.616+562.716+373.08+578.18+373.08C593.644+373.08+606.18+385.616+606.18+401.08C606.18+416.544+593.644+429.08+578.18+429.08C562.716+429.08+550.18+416.544+550.18+401.08Z" fill="none" stroke-linecap="butt" opacity="0.1" stroke-linejoin="miter"/>
<path d="M455.18+418.08C455.18+408.139+463.239+400.08+473.18+400.08C483.121+400.08+491.18+408.139+491.18+418.08C491.18+428.021+483.121+436.08+473.18+436.08C463.239+436.08+455.18+428.021+455.18+418.08Z" opacity="1" fill="#e2e2ec"/>
<path d="M441.74+358C441.74+355.83+443.5+354.07+445.67+354.07C447.84+354.07+449.6+355.83+449.6+358C449.6+360.17+447.84+361.93+445.67+361.93C443.5+361.93+441.74+360.17+441.74+358Z" opacity="1" fill="#e2e2ec"/>
<path d="M456.46+358C456.46+355.83+458.22+354.07+460.39+354.07C462.56+354.07+464.32+355.83+464.32+358C464.32+360.17+462.56+361.93+460.39+361.93C458.22+361.93+456.46+360.17+456.46+358Z" opacity="1" fill="#e2e2ec"/>
<path d="M454.5+376.65C454.5+374.48+456.26+372.72+458.43+372.72C460.6+372.72+462.36+374.48+462.36+376.65C462.36+378.82+460.6+380.58+458.43+380.58C456.26+380.58+454.5+378.82+454.5+376.65Z" opacity="1" fill="#e2e2ec"/>
<path d="M468.18+377.08C468.18+374.871+469.971+373.08+472.18+373.08C474.389+373.08+476.18+374.871+476.18+377.08C476.18+379.289+474.389+381.08+472.18+381.08C469.971+381.08+468.18+379.289+468.18+377.08Z" opacity="1" fill="#e2e2ec"/>
<path d="M481.98+376.65C481.98+374.48+483.74+372.72+485.91+372.72C488.08+372.72+489.84+374.48+489.84+376.65C489.84+378.82+488.08+380.58+485.91+380.58C483.74+380.58+481.98+378.82+481.98+376.65Z" opacity="1" fill="#e2e2ec"/>
<path d="M448.61+367.82C448.61+365.65+450.37+363.89+452.54+363.89C454.71+363.89+456.47+365.65+456.47+367.82C456.47+369.99+454.71+371.75+452.54+371.75C450.37+371.75+448.61+369.99+448.61+367.82Z" opacity="1" fill="#e2e2ec"/>
<path d="M461.18+368.08C461.18+365.871+462.971+364.08+465.18+364.08C467.389+364.08+469.18+365.871+469.18+368.08C469.18+370.289+467.389+372.08+465.18+372.08C462.971+372.08+461.18+370.289+461.18+368.08Z" opacity="1" fill="#e2e2ec"/>
<path d="M474.18+368.08C474.18+365.871+475.971+364.08+478.18+364.08C480.389+364.08+482.18+365.871+482.18+368.08C482.18+370.289+480.389+372.08+478.18+372.08C475.971+372.08+474.18+370.289+474.18+368.08Z" opacity="1" fill="#e2e2ec"/>
<path d="M487.87+367.82C487.87+365.65+489.63+363.89+491.8+363.89C493.97+363.89+495.73+365.65+495.73+367.82C495.73+369.99+493.97+371.75+491.8+371.75C489.63+371.75+487.87+369.99+487.87+367.82Z" opacity="1" fill="#e2e2ec"/>
<path d="M468.18+358.08C468.18+355.871+469.971+354.08+472.18+354.08C474.389+354.08+476.18+355.871+476.18+358.08C476.18+360.289+474.389+362.08+472.18+362.08C469.971+362.08+468.18+360.289+468.18+358.08Z" opacity="1" fill="#e2e2ec"/>
<path d="M482.18+358.08C482.18+355.871+483.971+354.08+486.18+354.08C488.389+354.08+490.18+355.871+490.18+358.08C490.18+360.289+488.389+362.08+486.18+362.08C483.971+362.08+482.18+360.289+482.18+358.08Z" opacity="1" fill="#e2e2ec"/>
<path d="M493.76+358C493.76+355.83+495.52+354.07+497.69+354.07C499.86+354.07+501.62+355.83+501.62+358C501.62+360.17+499.86+361.93+497.69+361.93C495.52+361.93+493.76+360.17+493.76+358Z" opacity="1" fill="#e2e2ec"/>
<path d="M323.68+225.08L328.68+225.08C333.374+225.08+337.18+228.886+337.18+233.58L337.18+254.58C337.18+259.274+333.374+263.08+328.68+263.08L323.68+263.08C318.986+263.08+315.18+259.274+315.18+254.58L315.18+233.58C315.18+228.886+318.986+225.08+323.68+225.08Z" opacity="1" fill="#e2e2ec"/>
<path d="M615.68+225.08L620.68+225.08C625.374+225.08+629.18+228.886+629.18+233.58L629.18+254.58C629.18+259.274+625.374+263.08+620.68+263.08L615.68+263.08C610.986+263.08+607.18+259.274+607.18+254.58L607.18+233.58C607.18+228.886+610.986+225.08+615.68+225.08Z" opacity="1" fill="#e2e2ec"/>
<path d="M675.18+263.08C675.18+249.825+685.925+239.08+699.18+239.08C712.435+239.08+723.18+249.825+723.18+263.08C723.18+276.335+712.435+287.08+699.18+287.08C685.925+287.08+675.18+276.335+675.18+263.08Z" opacity="1" fill="#535461"/>
<path d="M624.18+314.08C624.18+300.825+634.925+290.08+648.18+290.08C661.435+290.08+672.18+300.825+672.18+314.08C672.18+327.335+661.435+338.08+648.18+338.08C634.925+338.08+624.18+327.335+624.18+314.08Z" opacity="1" fill="#535461"/>
<path d="M728.18+311.08C728.18+297.825+738.925+287.08+752.18+287.08C765.435+287.08+776.18+297.825+776.18+311.08C776.18+324.335+765.435+335.08+752.18+335.08C738.925+335.08+728.18+324.335+728.18+311.08Z" opacity="1" fill="#535461"/>
<path d="M679.18+364.08C679.18+350.825+689.925+340.08+703.18+340.08C716.435+340.08+727.18+350.825+727.18+364.08C727.18+377.335+716.435+388.08+703.18+388.08C689.925+388.08+679.18+377.335+679.18+364.08Z" opacity="1" fill="#535461"/>
<path d="M368.93+211.08L574.43+211.08C586.442+211.08+596.18+220.818+596.18+232.83L596.18+322.33C596.18+334.342+586.442+344.08+574.43+344.08L368.93+344.08C356.918+344.08+347.18+334.342+347.18+322.33L347.18+232.83C347.18+220.818+356.918+211.08+368.93+211.08Z" opacity="1" fill="#e2e2ec"/>
<path stroke="#e2e2ec" stroke-width="2" d="M684.68+273.08L698.68+249.08L713.68+273.08L684.68+273.08Z" fill="none" stroke-linecap="butt" opacity="1" stroke-linejoin="miter"/>
<path stroke="#e2e2ec" stroke-width="2" d="M635.68+303.08L660.68+303.08L660.68+303.08L660.68+325.08L660.68+325.08L635.68+325.08L635.68+325.08L635.68+303.08L635.68+303.08Z" fill="none" stroke-linecap="butt" opacity="1" stroke-linejoin="miter"/>
<path stroke="#e2e2ec" stroke-width="2" d="M738.18+311.08C738.18+303.348+744.448+297.08+752.18+297.08C759.912+297.08+766.18+303.348+766.18+311.08C766.18+318.812+759.912+325.08+752.18+325.08C744.448+325.08+738.18+318.812+738.18+311.08Z" fill="none" stroke-linecap="butt" opacity="1" stroke-linejoin="miter"/>
<path stroke="#e2e2ec" stroke-width="2" d="M691.68+352.83L714.18+375.33" fill="none" stroke-linecap="butt" opacity="1" stroke-linejoin="miter"/>
<path stroke="#e2e2ec" stroke-width="2" d="M714.68+352.83L691.68+374.83" fill="none" stroke-linecap="butt" opacity="1" stroke-linejoin="miter"/>

</svg>
